<svg width="52" height="52" viewBox="0 0 52 52" fill="none" xmlns="http://www.w3.org/2000/svg">
<path fill-rule="evenodd" clip-rule="evenodd" d="M26 52C40.3594 52 52 40.3594 52 26C52 11.6406 40.3594 0 26 0C11.6406 0 0 11.6406 0 26C0 40.3594 11.6406 52 26 52ZM11 32V26C11 25.1703 11.6703 24.5 12.5 24.5H14V33.5H12.5C11.6703 33.5 11 32.8297 11 32ZM27.5 18.5H32.75C34.8219 18.5 36.5 20.1781 36.5 22.25V35C36.5 36.6547 35.1547 38 33.5 38H18.5C16.8453 38 15.5 36.6547 15.5 35V22.25C15.5 20.1781 17.1781 18.5 19.25 18.5H24.5V15.5C24.5 14.6703 25.1703 14 26 14C26.8297 14 27.5 14.6703 27.5 15.5V18.5ZM20 32V33.5H23V32H20ZM19.625 26C19.625 27.0359 20.4641 27.875 21.5 27.875C22.5359 27.875 23.375 27.0359 23.375 26C23.375 24.9641 22.5359 24.125 21.5 24.125C20.4641 24.125 19.625 24.9641 19.625 26ZM24.5 32V33.5H27.5V32H24.5ZM29 32V33.5H32V32H29ZM28.625 26C28.625 27.0359 29.4641 27.875 30.5 27.875C31.5359 27.875 32.375 27.0359 32.375 26C32.375 24.9641 31.5359 24.125 30.5 24.125C29.4641 24.125 28.625 24.9641 28.625 26ZM38 24.5H39.5C40.3297 24.5 41 25.1703 41 26V32C41 32.8297 40.3297 33.5 39.5 33.5H38V24.5Z" fill="#D9D9D9"/>
</svg>
