<svg xmlns="http://www.w3.org/2000/svg" fill="none" viewBox="0 0 52 52">
<path fill-rule="evenodd" clip-rule="evenodd" d="M26 52C40.3594 52 52 40.3594 52 26C52 11.6406 40.3594 0 26 0C11.6406 0 0 11.6406 0 26C0 40.3594 11.6406 52 26 52ZM33.0312 21.0312C33.0312 24.9131 29.8818 28.0625 26 28.0625C22.1182 28.0625 18.9688 24.9131 18.9688 21.0312C18.9688 17.1494 22.1182 14 26 14C29.8818 14 33.0312 17.1494 33.0312 21.0312ZM29.5596 29.625H32.25C35.7021 29.625 38.5 32.4229 38.5 35.875V36.6562C38.5 37.9502 37.4502 39 36.1562 39H15.8438C14.5498 39 13.5 37.9502 13.5 36.6562V35.875C13.5 32.4229 16.2979 29.625 19.75 29.625H22.4404C23.5293 30.123 24.7305 30.4062 26 30.4062C27.2695 30.4062 28.4756 30.123 29.5596 29.625Z" fill="#D9D9D9"/>
</svg>